/* XPM */
static char *_9279_07d214e01163c37b97238a3985354eb22af97bf4a78ff2693e5f8cf3ed762215[] = {
/* columns rows colors chars-per-pixel */
"25 25 3 1 ",
"  c #CF2020",
". c #D02020",
"X c None",
/* pixels */
"XXXXXXXXXXXXXXXXXXXXXXXXX",
"XXXXXXXXXXXXXXXXXXXXXXXXX",
"XXXXXXXXXXXXXXXXXXXXXXXXX",
"XXXXXXXXXXXXXXXXXXXXXXXXX",
"XXXXXXXXXXXXXXXXXXXXXXXXX",
"XXXXXXXXXX. . .XXXXXXXXXX",
"XXXXXXXX. XX.XX .XXXXXXXX",
"XXXXXXX XXXX.XXXX XXXXXXX",
"XXXXXX.XXXXX.XXXXX.XXXXXX",
"XXXXXX XXXXX.XXXXX XXXXXX",
"XXXXX.XXXXXX.XXXXXX.XXXXX",
"XXXXX XXXXXX.XXXXXX XXXXX",
"XXXXX       .       XXXXX",
"XXXXX XXXXXX.XXXXXX XXXXX",
"XXXXX.XXXXXX.XXXXXX.XXXXX",
"XXXXXX XXXXX.XXXXX XXXXXX",
"XXXXXX.XXXXX.XXXXX.XXXXXX",
"XXXXXXX XXXX.XXXX XXXXXXX",
"XXXXXXXX. XX.XX .XXXXXXXX",
"XXXXXXXXXX. . .XXXXXXXXXX",
"XXXXXXXXXXXXXXXXXXXXXXXXX",
"XXXXXXXXXXXXXXXXXXXXXXXXX",
"XXXXXXXXXXXXXXXXXXXXXXXXX",
"XXXXXXXXXXXXXXXXXXXXXXXXX",
"XXXXXXXXXXXXXXXXXXXXXXXXX"
};
